<svg xmlns="http://www.w3.org/2000/svg" xmlns:xlink="http://www.w3.org/1999/xlink" width="500" zoomAndPan="magnify" viewBox="0 0 375 374.999991" height="500" preserveAspectRatio="xMidYMid meet" version="1.0"><defs><clipPath id="c8be8c3457"><path d="M 15.226562 33.75 L 156.226562 33.75 L 156.226562 341.25 L 15.226562 341.25 Z M 15.226562 33.75 " clip-rule="nonzero"/></clipPath><clipPath id="b98aa2e24e"><path d="M 165.382812 0 L 177.382812 0 L 177.382812 375 L 165.382812 375 Z M 165.382812 0 " clip-rule="nonzero"/></clipPath><clipPath id="0bff0fee61"><path d="M 186.382812 47.125 L 360.054688 47.125 L 360.054688 356.125 L 186.382812 356.125 Z M 186.382812 47.125 " clip-rule="nonzero"/></clipPath></defs><g clip-path="url(#c8be8c3457)"><path fill="#6366f1" d="M 259.914062 341.25 L 210.992188 341.25 C 207.128906 341.25 204.003906 338.117188 204.003906 334.261719 L 204.003906 208.464844 L 78.210938 208.464844 L 78.210938 334.261719 C 78.210938 338.117188 75.085938 341.25 71.222656 341.25 L 22.300781 341.25 C 18.4375 341.25 15.3125 338.117188 15.3125 334.261719 L 15.3125 40.738281 C 15.3125 36.882812 18.4375 33.75 22.300781 33.75 L 71.222656 33.75 C 75.085938 33.75 78.210938 36.882812 78.210938 40.738281 L 78.210938 152.558594 L 204.003906 152.558594 L 204.003906 40.738281 C 204.003906 36.882812 207.128906 33.75 210.992188 33.75 L 259.914062 33.75 C 263.777344 33.75 266.902344 36.882812 266.902344 40.738281 L 266.902344 334.261719 C 266.902344 338.117188 263.777344 341.25 259.914062 341.25 Z M 259.914062 341.25 " fill-opacity="1" fill-rule="nonzero"/></g><g clip-path="url(#b98aa2e24e)"><path fill="#000000" d="M 165.382812 0 L 177.382812 0 L 177.382812 375 L 165.382812 375 Z M 165.382812 0 " fill-opacity="1" fill-rule="nonzero"/></g><g clip-path="url(#0bff0fee61)"><path fill="#000000" d="M 360.050781 195.1875 C 360.050781 195.15625 360.054688 195.125 360.054688 195.089844 C 360.054688 103.828125 308.433594 47.125 225.339844 47.125 C 143.15625 47.125 90.054688 105.203125 90.054688 195.089844 C 90.054688 195.125 90.0625 195.15625 90.0625 195.1875 C 90.101562 286.515625 141.925781 343.25 225.34375 343.25 C 244.484375 343.25 261.851562 340.109375 277.402344 334.359375 L 290.472656 353.339844 C 291.667969 355.082031 293.65625 356.125 295.769531 356.125 L 334.339844 356.125 C 336.734375 356.125 338.917969 354.800781 340.03125 352.679688 C 341.144531 350.5625 340.988281 348.007812 339.636719 346.039062 L 315.8125 311.339844 C 344.105469 285.75 360.03125 245.820312 360.050781 195.1875 Z M 263.625 240.25 L 225.054688 240.25 C 222.664062 240.25 220.476562 241.578125 219.367188 243.695312 C 218.253906 245.8125 218.410156 248.367188 219.757812 250.339844 L 246.230469 288.898438 C 239.71875 290.707031 232.777344 291.75 225.332031 291.75 C 177.226562 291.75 147.914062 253.929688 147.914062 195.097656 C 147.914062 136.085938 177.960938 98.625 225.332031 98.625 C 272.523438 98.625 302.199219 136.085938 302.199219 195.097656 C 302.199219 223.398438 295.269531 246.699219 282.898438 263.394531 L 268.929688 243.042969 C 267.726562 241.292969 265.742188 240.25 263.625 240.25 Z M 263.625 240.25 " fill-opacity="1" fill-rule="nonzero"/></g></svg>