<svg xmlns="http://www.w3.org/2000/svg" xmlns:xlink="http://www.w3.org/1999/xlink" width="500" zoomAndPan="magnify" viewBox="0 0 375 374.999991" height="500" preserveAspectRatio="xMidYMid meet" version="1.0"><defs><g/><clipPath id="332699b210"><path d="M 53.796875 28.953125 L 174.753906 28.953125 L 174.753906 292.742188 L 53.796875 292.742188 Z M 53.796875 28.953125 " clip-rule="nonzero"/></clipPath><clipPath id="2a58a4213d"><path d="M 182.609375 0 L 192.90625 0 L 192.90625 321.691406 L 182.609375 321.691406 Z M 182.609375 0 " clip-rule="nonzero"/></clipPath><clipPath id="9f6cdb0c03"><path d="M 200.625 40.425781 L 349.609375 40.425781 L 349.609375 305.5 L 200.625 305.5 Z M 200.625 40.425781 " clip-rule="nonzero"/></clipPath></defs><g clip-path="url(#332699b210)"><path fill="#6366f1" d="M 263.703125 292.742188 L 221.738281 292.742188 C 218.421875 292.742188 215.742188 290.054688 215.742188 286.746094 L 215.742188 178.832031 L 107.828125 178.832031 L 107.828125 286.746094 C 107.828125 290.054688 105.148438 292.742188 101.832031 292.742188 L 59.867188 292.742188 C 56.550781 292.742188 53.871094 290.054688 53.871094 286.746094 L 53.871094 34.949219 C 53.871094 31.636719 56.550781 28.953125 59.867188 28.953125 L 101.832031 28.953125 C 105.148438 28.953125 107.828125 31.636719 107.828125 34.949219 L 107.828125 130.871094 L 215.742188 130.871094 L 215.742188 34.949219 C 215.742188 31.636719 218.421875 28.953125 221.738281 28.953125 L 263.703125 28.953125 C 267.019531 28.953125 269.699219 31.636719 269.699219 34.949219 L 269.699219 286.746094 C 269.699219 290.054688 267.019531 292.742188 263.703125 292.742188 Z M 263.703125 292.742188 " fill-opacity="1" fill-rule="nonzero"/></g><g clip-path="url(#2a58a4213d)"><path fill="#000000" d="M 182.609375 0 L 192.90625 0 L 192.90625 321.691406 L 182.609375 321.691406 Z M 182.609375 0 " fill-opacity="1" fill-rule="nonzero"/></g><g clip-path="url(#9f6cdb0c03)"><path fill="#000000" d="M 349.605469 167.441406 C 349.605469 167.414062 349.609375 167.386719 349.609375 167.359375 C 349.609375 89.066406 305.328125 40.425781 234.042969 40.425781 C 163.542969 40.425781 117.992188 90.25 117.992188 167.359375 C 117.992188 167.386719 117.996094 167.414062 117.996094 167.441406 C 118.027344 245.789062 162.488281 294.457031 234.046875 294.457031 C 250.464844 294.457031 265.367188 291.761719 278.707031 286.832031 L 289.917969 303.109375 C 290.945312 304.605469 292.648438 305.5 294.460938 305.5 L 327.550781 305.5 C 329.601562 305.5 331.476562 304.363281 332.429688 302.546875 C 333.386719 300.730469 333.253906 298.539062 332.09375 296.847656 L 311.65625 267.082031 C 335.925781 245.128906 349.585938 210.875 349.605469 167.441406 Z M 266.886719 206.097656 L 233.800781 206.097656 C 231.75 206.097656 229.875 207.234375 228.917969 209.050781 C 227.964844 210.871094 228.097656 213.0625 229.257812 214.75 L 251.964844 247.832031 C 246.378906 249.382812 240.421875 250.277344 234.039062 250.277344 C 192.769531 250.277344 167.625 217.832031 167.625 167.363281 C 167.625 116.742188 193.398438 84.605469 234.039062 84.605469 C 274.519531 84.605469 299.976562 116.742188 299.976562 167.363281 C 299.976562 191.640625 294.03125 211.632812 283.421875 225.953125 L 271.4375 208.496094 C 270.40625 206.992188 268.703125 206.097656 266.886719 206.097656 Z M 266.886719 206.097656 " fill-opacity="1" fill-rule="nonzero"/></g><g fill="#6366f1" fill-opacity="1"><g transform="translate(60.369991, 365.073634)"><g><path d="M 8.953125 0 L 2.875 0 L 2.875 -32.25 L 8.953125 -32.25 L 8.953125 -18.890625 L 22.78125 -18.890625 L 22.78125 -32.25 L 28.875 -32.25 L 28.875 0 L 22.78125 0 L 22.78125 -13.4375 L 8.953125 -13.4375 Z M 8.953125 0 "/></g></g></g><g fill="#6366f1" fill-opacity="1"><g transform="translate(92.151393, 365.073634)"><g><path d="M 9.421875 0.46875 C 7.203125 0.46875 5.347656 -0.128906 3.859375 -1.328125 C 2.378906 -2.523438 1.640625 -4.253906 1.640625 -6.515625 C 1.640625 -7.773438 1.882812 -8.847656 2.375 -9.734375 C 2.875 -10.628906 3.535156 -11.359375 4.359375 -11.921875 C 5.117188 -12.453125 5.984375 -12.875 6.953125 -13.1875 C 7.921875 -13.5 8.898438 -13.753906 9.890625 -13.953125 L 16.953125 -15.265625 C 16.890625 -16.722656 16.507812 -17.832031 15.8125 -18.59375 C 15.101562 -19.351562 14.046875 -19.734375 12.640625 -19.734375 C 11.566406 -19.734375 10.613281 -19.414062 9.78125 -18.78125 C 8.945312 -18.15625 8.421875 -17.273438 8.203125 -16.140625 L 2.53125 -16.140625 C 2.8125 -18.003906 3.457031 -19.523438 4.46875 -20.703125 C 5.488281 -21.890625 6.722656 -22.769531 8.171875 -23.34375 C 9.628906 -23.925781 11.132812 -24.21875 12.6875 -24.21875 C 14.0625 -24.21875 15.378906 -24.019531 16.640625 -23.625 C 17.910156 -23.226562 18.984375 -22.625 19.859375 -21.8125 C 20.796875 -20.988281 21.457031 -20.046875 21.84375 -18.984375 C 22.238281 -17.929688 22.472656 -16.832031 22.546875 -15.6875 C 22.617188 -14.550781 22.65625 -13.4375 22.65625 -12.34375 L 22.65625 0 L 16.953125 0 L 16.953125 -3.21875 C 16.359375 -2.164062 15.640625 -1.375 14.796875 -0.84375 C 14.054688 -0.363281 13.226562 -0.0234375 12.3125 0.171875 C 11.40625 0.367188 10.441406 0.46875 9.421875 0.46875 Z M 10.8125 -4.015625 C 11.945312 -4.015625 12.960938 -4.238281 13.859375 -4.6875 C 15.097656 -5.3125 15.9375 -6.144531 16.375 -7.1875 C 16.8125 -8.226562 17.046875 -9.523438 17.078125 -11.078125 L 11.40625 -9.9375 C 10.59375 -9.789062 9.925781 -9.601562 9.40625 -9.375 C 8.882812 -9.15625 8.453125 -8.890625 8.109375 -8.578125 C 7.890625 -8.347656 7.707031 -8.078125 7.5625 -7.765625 C 7.425781 -7.460938 7.359375 -7.113281 7.359375 -6.71875 C 7.359375 -5.84375 7.6875 -5.171875 8.34375 -4.703125 C 9.007812 -4.242188 9.832031 -4.015625 10.8125 -4.015625 Z M 10.8125 -4.015625 "/></g></g></g><g fill="#6366f1" fill-opacity="1"><g transform="translate(117.128533, 365.073634)"><g><path d="M 8.328125 0 L 2.625 0 L 2.625 -32.25 L 8.328125 -32.25 L 8.328125 -14.96875 L 16.984375 -23.71875 L 24.21875 -23.71875 L 13.734375 -13.4375 L 24.984375 0 L 17.96875 0 L 8.328125 -11.796875 Z M 8.328125 0 "/></g></g></g><g fill="#6366f1" fill-opacity="1"><g transform="translate(142.31698, 365.073634)"><g><path d="M 9.421875 0.46875 C 7.203125 0.46875 5.347656 -0.128906 3.859375 -1.328125 C 2.378906 -2.523438 1.640625 -4.253906 1.640625 -6.515625 C 1.640625 -7.773438 1.882812 -8.847656 2.375 -9.734375 C 2.875 -10.628906 3.535156 -11.359375 4.359375 -11.921875 C 5.117188 -12.453125 5.984375 -12.875 6.953125 -13.1875 C 7.921875 -13.5 8.898438 -13.753906 9.890625 -13.953125 L 16.953125 -15.265625 C 16.890625 -16.722656 16.507812 -17.832031 15.8125 -18.59375 C 15.101562 -19.351562 14.046875 -19.734375 12.640625 -19.734375 C 11.566406 -19.734375 10.613281 -19.414062 9.78125 -18.78125 C 8.945312 -18.15625 8.421875 -17.273438 8.203125 -16.140625 L 2.53125 -16.140625 C 2.8125 -18.003906 3.457031 -19.523438 4.46875 -20.703125 C 5.488281 -21.890625 6.722656 -22.769531 8.171875 -23.34375 C 9.628906 -23.925781 11.132812 -24.21875 12.6875 -24.21875 C 14.0625 -24.21875 15.378906 -24.019531 16.640625 -23.625 C 17.910156 -23.226562 18.984375 -22.625 19.859375 -21.8125 C 20.796875 -20.988281 21.457031 -20.046875 21.84375 -18.984375 C 22.238281 -17.929688 22.472656 -16.832031 22.546875 -15.6875 C 22.617188 -14.550781 22.65625 -13.4375 22.65625 -12.34375 L 22.65625 0 L 16.953125 0 L 16.953125 -3.21875 C 16.359375 -2.164062 15.640625 -1.375 14.796875 -0.84375 C 14.054688 -0.363281 13.226562 -0.0234375 12.3125 0.171875 C 11.40625 0.367188 10.441406 0.46875 9.421875 0.46875 Z M 10.8125 -4.015625 C 11.945312 -4.015625 12.960938 -4.238281 13.859375 -4.6875 C 15.097656 -5.3125 15.9375 -6.144531 16.375 -7.1875 C 16.8125 -8.226562 17.046875 -9.523438 17.078125 -11.078125 L 11.40625 -9.9375 C 10.59375 -9.789062 9.925781 -9.601562 9.40625 -9.375 C 8.882812 -9.15625 8.453125 -8.890625 8.109375 -8.578125 C 7.890625 -8.347656 7.707031 -8.078125 7.5625 -7.765625 C 7.425781 -7.460938 7.359375 -7.113281 7.359375 -6.71875 C 7.359375 -5.84375 7.6875 -5.171875 8.34375 -4.703125 C 9.007812 -4.242188 9.832031 -4.015625 10.8125 -4.015625 Z M 10.8125 -4.015625 "/></g></g></g><g fill="#6366f1" fill-opacity="1"><g transform="translate(167.29412, 365.073634)"><g><path d="M 8.28125 0 L 2.578125 0 L 2.578125 -23.71875 L 8.28125 -23.71875 L 8.28125 -20.703125 C 9.207031 -22.003906 10.210938 -22.914062 11.296875 -23.4375 C 12.390625 -23.957031 13.539062 -24.21875 14.75 -24.21875 C 16.300781 -24.21875 17.632812 -23.898438 18.75 -23.265625 C 19.863281 -22.628906 20.601562 -21.679688 20.96875 -20.421875 C 21.75 -21.742188 22.71875 -22.707031 23.875 -23.3125 C 25.03125 -23.914062 26.382812 -24.21875 27.9375 -24.21875 C 30.613281 -24.21875 32.578125 -23.4375 33.828125 -21.875 C 35.085938 -20.3125 35.71875 -18.203125 35.71875 -15.546875 L 35.71875 0 L 30.015625 0 L 30.015625 -14.828125 C 30.015625 -16.460938 29.695312 -17.65625 29.0625 -18.40625 C 28.425781 -19.15625 27.503906 -19.53125 26.296875 -19.53125 C 25.671875 -19.53125 25.117188 -19.421875 24.640625 -19.203125 C 24.160156 -18.992188 23.765625 -18.722656 23.453125 -18.390625 C 22.921875 -17.765625 22.546875 -16.976562 22.328125 -16.03125 C 22.117188 -15.09375 22.015625 -13.929688 22.015625 -12.546875 L 22.015625 0 L 16.3125 0 L 16.3125 -14.828125 C 16.3125 -16.441406 15.976562 -17.628906 15.3125 -18.390625 C 14.65625 -19.148438 13.734375 -19.53125 12.546875 -19.53125 C 11.367188 -19.53125 10.410156 -19.117188 9.671875 -18.296875 C 9.222656 -17.765625 8.878906 -17.050781 8.640625 -16.15625 C 8.398438 -15.269531 8.28125 -14.066406 8.28125 -12.546875 Z M 8.28125 0 "/></g></g></g><g fill="#ffffff" fill-opacity="1"><g transform="translate(205.473563, 365.073634)"><g/></g></g><g fill="#000000" fill-opacity="1"><g transform="translate(216.813235, 365.073634)"><g><path d="M 32.96875 -16.140625 C 32.96875 -13.640625 32.566406 -11.257812 31.765625 -9 C 30.960938 -6.75 29.726562 -4.847656 28.0625 -3.296875 L 32.453125 3.671875 L 25.65625 3.671875 L 23.125 -0.34375 C 22.25 -0.0625 21.332031 0.160156 20.375 0.328125 C 19.414062 0.503906 18.382812 0.59375 17.28125 0.59375 C 14.632812 0.59375 12.320312 0.144531 10.34375 -0.75 C 8.375 -1.65625 6.75 -2.882812 5.46875 -4.4375 C 4.1875 -5.988281 3.226562 -7.769531 2.59375 -9.78125 C 1.957031 -11.800781 1.640625 -13.921875 1.640625 -16.140625 C 1.640625 -18.367188 1.957031 -20.488281 2.59375 -22.5 C 3.226562 -24.519531 4.1875 -26.300781 5.46875 -27.84375 C 6.75 -29.394531 8.375 -30.613281 10.34375 -31.5 C 12.320312 -32.394531 14.632812 -32.84375 17.28125 -32.84375 C 19.957031 -32.84375 22.28125 -32.394531 24.25 -31.5 C 26.226562 -30.613281 27.859375 -29.394531 29.140625 -27.84375 C 30.421875 -26.300781 31.378906 -24.519531 32.015625 -22.5 C 32.648438 -20.488281 32.96875 -18.367188 32.96875 -16.140625 Z M 7.984375 -16.140625 C 7.984375 -13.921875 8.347656 -11.957031 9.078125 -10.25 C 9.816406 -8.539062 10.882812 -7.210938 12.28125 -6.265625 C 13.675781 -5.328125 15.34375 -4.859375 17.28125 -4.859375 C 19.28125 -4.859375 20.96875 -5.328125 22.34375 -6.265625 C 23.726562 -7.210938 24.785156 -8.539062 25.515625 -10.25 C 26.253906 -11.957031 26.625 -13.921875 26.625 -16.140625 C 26.625 -18.367188 26.253906 -20.320312 25.515625 -22 C 24.785156 -23.675781 23.726562 -24.984375 22.34375 -25.921875 C 20.96875 -26.867188 19.28125 -27.34375 17.28125 -27.34375 C 15.34375 -27.34375 13.675781 -26.867188 12.28125 -25.921875 C 10.882812 -24.984375 9.816406 -23.675781 9.078125 -22 C 8.347656 -20.320312 7.984375 -18.367188 7.984375 -16.140625 Z M 7.984375 -16.140625 "/></g></g></g><g fill="#000000" fill-opacity="1"><g transform="translate(251.552998, 365.073634)"><g><path d="M 9.421875 0.46875 C 7.203125 0.46875 5.347656 -0.128906 3.859375 -1.328125 C 2.378906 -2.523438 1.640625 -4.253906 1.640625 -6.515625 C 1.640625 -7.773438 1.882812 -8.847656 2.375 -9.734375 C 2.875 -10.628906 3.535156 -11.359375 4.359375 -11.921875 C 5.117188 -12.453125 5.984375 -12.875 6.953125 -13.1875 C 7.921875 -13.5 8.898438 -13.753906 9.890625 -13.953125 L 16.953125 -15.265625 C 16.890625 -16.722656 16.507812 -17.832031 15.8125 -18.59375 C 15.101562 -19.351562 14.046875 -19.734375 12.640625 -19.734375 C 11.566406 -19.734375 10.613281 -19.414062 9.78125 -18.78125 C 8.945312 -18.15625 8.421875 -17.273438 8.203125 -16.140625 L 2.53125 -16.140625 C 2.8125 -18.003906 3.457031 -19.523438 4.46875 -20.703125 C 5.488281 -21.890625 6.722656 -22.769531 8.171875 -23.34375 C 9.628906 -23.925781 11.132812 -24.21875 12.6875 -24.21875 C 14.0625 -24.21875 15.378906 -24.019531 16.640625 -23.625 C 17.910156 -23.226562 18.984375 -22.625 19.859375 -21.8125 C 20.796875 -20.988281 21.457031 -20.046875 21.84375 -18.984375 C 22.238281 -17.929688 22.472656 -16.832031 22.546875 -15.6875 C 22.617188 -14.550781 22.65625 -13.4375 22.65625 -12.34375 L 22.65625 0 L 16.953125 0 L 16.953125 -3.21875 C 16.359375 -2.164062 15.640625 -1.375 14.796875 -0.84375 C 14.054688 -0.363281 13.226562 -0.0234375 12.3125 0.171875 C 11.40625 0.367188 10.441406 0.46875 9.421875 0.46875 Z M 10.8125 -4.015625 C 11.945312 -4.015625 12.960938 -4.238281 13.859375 -4.6875 C 15.097656 -5.3125 15.9375 -6.144531 16.375 -7.1875 C 16.8125 -8.226562 17.046875 -9.523438 17.078125 -11.078125 L 11.40625 -9.9375 C 10.59375 -9.789062 9.925781 -9.601562 9.40625 -9.375 C 8.882812 -9.15625 8.453125 -8.890625 8.109375 -8.578125 C 7.890625 -8.347656 7.707031 -8.078125 7.5625 -7.765625 C 7.425781 -7.460938 7.359375 -7.113281 7.359375 -6.71875 C 7.359375 -5.84375 7.6875 -5.171875 8.34375 -4.703125 C 9.007812 -4.242188 9.832031 -4.015625 10.8125 -4.015625 Z M 10.8125 -4.015625 "/></g></g></g><g fill="#000000" fill-opacity="1"><g transform="translate(276.530137, 365.073634)"><g><path d="M 12.125 0.46875 C 10.070312 0.46875 8.253906 -0.0507812 6.671875 -1.09375 C 5.097656 -2.132812 3.875 -3.582031 3 -5.4375 C 2.125 -7.300781 1.6875 -9.445312 1.6875 -11.875 C 1.6875 -14.300781 2.125 -16.441406 3 -18.296875 C 3.875 -20.160156 5.097656 -21.613281 6.671875 -22.65625 C 8.253906 -23.695312 10.070312 -24.21875 12.125 -24.21875 C 13.539062 -24.21875 14.773438 -23.96875 15.828125 -23.46875 C 16.878906 -22.976562 17.882812 -22.054688 18.84375 -20.703125 L 18.84375 -32.25 L 24.5625 -32.25 L 24.5625 0 L 18.84375 0 L 18.84375 -3 C 17.882812 -1.675781 16.878906 -0.765625 15.828125 -0.265625 C 14.773438 0.222656 13.539062 0.46875 12.125 0.46875 Z M 13.4375 -4.4375 C 15.269531 -4.4375 16.75 -5.125 17.875 -6.5 C 19 -7.882812 19.5625 -9.675781 19.5625 -11.875 C 19.5625 -14.070312 19 -15.859375 17.875 -17.234375 C 16.75 -18.617188 15.269531 -19.3125 13.4375 -19.3125 C 11.632812 -19.3125 10.179688 -18.613281 9.078125 -17.21875 C 7.984375 -15.820312 7.4375 -14.039062 7.4375 -11.875 C 7.4375 -9.738281 7.984375 -7.960938 9.078125 -6.546875 C 10.179688 -5.140625 11.632812 -4.4375 13.4375 -4.4375 Z M 13.4375 -4.4375 "/></g></g></g><g fill="#000000" fill-opacity="1"><g transform="translate(303.704915, 365.073634)"><g><path d="M 5.453125 -26.328125 C 4.492188 -26.328125 3.664062 -26.625 2.96875 -27.21875 C 2.28125 -27.8125 1.9375 -28.601562 1.9375 -29.59375 C 1.9375 -30.539062 2.28125 -31.316406 2.96875 -31.921875 C 3.664062 -32.535156 4.492188 -32.84375 5.453125 -32.84375 C 6.410156 -32.84375 7.234375 -32.535156 7.921875 -31.921875 C 8.609375 -31.316406 8.953125 -30.539062 8.953125 -29.59375 C 8.953125 -28.601562 8.609375 -27.8125 7.921875 -27.21875 C 7.234375 -26.625 6.410156 -26.328125 5.453125 -26.328125 Z M 8.28125 0 L 2.578125 0 L 2.578125 -23.71875 L 8.28125 -23.71875 Z M 8.28125 0 "/></g></g></g></svg>