<svg width="70" height="70" viewBox="0 0 88 88" fill="none" xmlns="http://www.w3.org/2000/svg">
<path fill-rule="evenodd" clip-rule="evenodd" d="M44 1C19.69 1 0 20.69 0 45C0 64.47 12.595 80.915 30.085 86.745C32.285 87.13 33.11 85.81 33.11 84.655C33.11 83.61 33.055 80.145 33.055 76.46C22 78.495 19.14 73.765 18.26 71.29C17.765 70.025 15.62 66.12 13.75 65.075C12.21 64.25 10.01 62.215 13.695 62.16C17.16 62.105 19.635 65.35 20.46 66.67C24.42 73.325 30.745 71.455 33.275 70.3C33.66 67.44 34.815 65.515 36.08 64.415C26.29 63.315 16.06 59.52 16.06 42.69C16.06 37.905 17.765 33.945 20.57 30.865C20.13 29.765 18.59 25.255 21.01 19.205C21.01 19.205 24.695 18.05 33.11 23.715C36.63 22.725 40.37 22.23 44.11 22.23C47.85 22.23 51.59 22.725 55.11 23.715C63.525 17.995 67.21 19.205 67.21 19.205C69.63 25.255 68.09 29.765 67.65 30.865C70.455 33.945 72.16 37.85 72.16 42.69C72.16 59.575 61.875 63.315 52.085 64.415C53.68 65.79 55.055 68.43 55.055 72.555C55.055 78.44 55 83.17 55 84.655C55 85.81 55.825 87.185 58.025 86.745C66.7597 83.796 74.3497 78.1822 79.7268 70.6937C85.1039 63.2052 87.9974 54.219 88 45C88 20.69 68.31 1 44 1Z" fill="black"/>
</svg>
